<?xml version="1.0" encoding="UTF-8"?>
<svg width="33px" height="33px" viewBox="0 0 33 33" version="1.1" xmlns="http://www.w3.org/2000/svg" xmlns:xlink="http://www.w3.org/1999/xlink">
    <!-- Generator: Sketch 53.2 (72643) - https://sketchapp.com -->
    <title>ic-delete</title>
    <desc>Created with Sketch.</desc>
    <g id="Symbols" stroke="none" stroke-width="1" fill="none" fill-rule="evenodd">
        <g id="todo-item" transform="translate(-551.000000, -21.000000)" fill="#D46666" fill-rule="nonzero">
            <g id="ic-delete" transform="translate(551.000000, 21.000000)">
                <path d="M16.5,0 C7.3875,0 0,7.387125 0,16.5 C0,25.612875 7.3875,33 16.5,33 C25.6125,33 33,25.612875 33,16.5 C33,7.387125 25.6125,0 16.5,0 Z M16.5,30 C9.04425,30 3,23.95575 3,16.5 C3,9.04425 9.04425,3 16.5,3 C23.95575,3 30,9.04425 30,16.5 C30,23.95575 23.95575,30 16.5,30 Z" id="Shape"></path>
                <path d="M18.5317694,16.5 L21.5792438,13.4523265 C22.1402521,12.8912816 22.1402521,11.9814694 21.5792438,11.4207837 C21.0182355,10.8597388 20.1081236,10.8597388 19.5471153,11.4207837 L16.5,14.468098 L13.4525255,11.4207837 C12.8915173,10.8597388 11.9817645,10.8597388 11.4207562,11.4207837 C10.8597479,11.9818286 10.8597479,12.892 11.4207562,13.4523265 L14.4682306,16.5 L11.4207562,19.5476735 C10.8597479,20.1087184 10.8597479,21.0185306 11.4207562,21.5792163 C11.9817645,22.1402612 12.8915173,22.1402612 13.4525255,21.5792163 L16.5,18.531902 L19.5471153,21.5792163 C20.1081236,22.1402612 21.0182355,22.1402612 21.5792438,21.5792163 C22.1402521,21.0181714 22.1402521,20.108 21.5792438,19.5476735 L18.5317694,16.5 Z" id="Path"></path>
            </g>
        </g>
    </g>
</svg>